<svg width="1024" height="1024" viewBox="0 0 1024 1024" fill="none" xmlns="http://www.w3.org/2000/svg">
<rect x="0.5" y="0.5" width="1023" height="1023" rx="219.5" fill="url(#paint0_radial_101_3)" stroke="#C6C6C8"/>
<g filter="url(#filter0_d_101_3)">
<path d="M512 64C759.424 64 960 264.576 960 512C960 574.93 947.023 634.828 923.603 689.168C917.912 674.744 911.486 660.61 904.237 646.832C870.235 576.579 843.635 524.927 806.509 476.82C799.978 471.67 788.255 470.19 780.964 476.999C774.757 482.795 773.471 492.076 777.068 499.324C778.061 501.323 779.424 503.169 781.158 504.743C816.627 552.316 847.036 608.671 870.617 671.141C879.73 695.282 887.718 720.06 894.55 745.271C815.856 874.048 673.966 960 512 960C395.123 960 288.701 915.243 208.935 841.935C209.016 835.578 209.189 829.152 209.457 822.654L209.609 818.956C213.126 733.803 215.265 681.997 229.665 623.669C231.645 615.65 228.629 611.373 225.52 610.304C210.569 605.163 197.926 608.35 194.43 624.203C184.347 669.931 176.316 726.157 171.126 802.716C104.329 724.469 64 622.945 64 512C64 264.576 264.576 64 512 64ZM545.64 574.495C545.174 571.223 542.129 568.942 538.84 569.402C536.611 569.714 534.843 571.205 534.078 573.15C533.871 573.677 533.657 574.204 533.396 574.705C533.369 574.755 533.343 574.806 533.318 574.856L533.154 575.202L533.064 575.388C532.859 575.787 532.677 575.961 532.466 576.125C532.058 576.441 531.439 576.78 529.977 577.464C528.316 578.24 527.577 578.386 525.739 578.31C525.074 578.282 523.592 577.782 521.704 576.742C521.174 576.45 520.763 575.989 520.388 575.514C519.373 574.227 517.837 573.358 516.073 573.241C513.633 573.08 511.439 574.402 510.368 576.435C509.66 577.47 509.321 578.656 509.328 579.83C509.332 580.495 509.368 581.176 509.134 581.798C509.074 581.956 509.011 582.104 508.945 582.243C508.589 582.995 507.993 583.846 506.779 584.981C505.415 586.258 504.735 586.639 502.917 587.146C501.337 587.587 500.624 587.738 500.085 587.766C499.756 587.782 499.45 587.759 498.888 587.501C498.306 587.234 497.799 586.83 497.332 586.393C495.365 584.553 492.329 584.213 489.969 585.747C487.191 587.553 486.403 591.271 488.209 594.049C488.862 595.053 489.87 596.525 491.721 597.504C492.378 597.851 493.079 598.087 493.199 598.131C493.431 598.215 493.621 598.288 493.884 598.408C498.89 600.704 502.967 599.59 506.142 598.705C508.097 598.16 510.301 599.385 511.313 601.145C512.084 602.483 513.17 603.697 514.586 604.684L515.218 605.124C521.234 609.316 529.59 606.56 531.932 599.611L532.178 598.881C532.787 597.073 532.905 595.282 532.634 593.608C532.302 591.564 533.223 589.174 535.1 588.297C537.714 587.075 541 585.517 543.29 581.713C543.593 581.209 543.964 580.749 544.339 580.297C544.426 580.191 544.514 580.08 544.599 579.962C545.452 578.775 545.677 577.588 545.747 576.92C545.813 576.285 545.776 575.738 545.752 575.453C545.725 575.126 545.682 574.792 545.64 574.495ZM452.799 588.95C451.223 583.419 441.54 581.33 431.169 584.283C420.798 587.237 413.667 594.116 415.242 599.647C416.818 605.178 426.503 607.267 436.873 604.313C447.244 601.36 454.374 594.481 452.799 588.95ZM237.549 573.28C237.138 569.436 233.69 566.653 229.846 567.063L179.653 572.419C175.809 572.829 173.025 576.278 173.435 580.122C173.845 583.966 177.295 586.75 181.139 586.34L231.331 580.983C235.175 580.573 237.959 577.124 237.549 573.28ZM478.86 538.346C473.93 521.036 460.256 509.759 448.318 513.159C436.381 516.559 430.699 533.348 435.629 550.658C440.559 567.968 454.233 579.244 466.171 575.845C478.109 572.445 483.79 555.655 478.86 538.346ZM623.251 542.159C621.676 536.628 611.99 534.538 601.619 537.491C591.248 540.445 584.118 547.324 585.693 552.855C587.269 558.386 596.954 560.476 607.324 557.522C617.695 554.569 624.825 547.69 623.251 542.159ZM559.882 503.598C557.86 501.717 554.696 501.833 552.815 503.855L528.524 529.979L524.356 534.46C521.9 537.102 522.965 541.397 526.371 542.586L532.148 544.604L567.236 556.855C569.843 557.765 572.694 556.389 573.604 553.782L576.242 546.23C577.152 543.624 575.778 540.772 573.171 539.861L558.308 534.671C554.902 533.482 553.838 529.189 556.294 526.547L565.997 516.112C567.877 514.09 567.762 510.926 565.74 509.046L559.882 503.598ZM188.17 514.972C184.38 514.212 180.691 516.669 179.931 520.459C179.171 524.249 181.628 527.938 185.418 528.698L237.58 539.157C241.37 539.917 245.059 537.461 245.819 533.671C246.579 529.88 244.122 526.191 240.332 525.431L188.17 514.972ZM575.034 265.837C554.855 266.189 541.091 277.943 524.429 290.946C507.766 303.949 491.51 321.26 480.662 339.783C467.556 362.163 460.831 367.067 447.112 356.907C445.4 355.639 429.823 344.413 413.234 335.5C396.645 326.587 379.889 319.714 359.647 317.758C339.405 315.802 324.621 315.678 306.378 324.143C288.135 332.607 281.837 345.634 269.601 362.659C257.364 379.685 252.483 400.824 248.939 422.671L248.817 423.423C245.291 445.155 240.832 472.645 246.692 494.266C246.83 494.772 246.969 495.278 247.111 495.783C248.794 501.759 254.968 504.987 261.188 505.183C276.117 505.651 280.333 504.252 274.511 490.53C274.057 489.46 273.657 488.316 273.323 487.085C268.687 469.98 268.079 440.445 270.851 423.358C273.622 406.272 276.921 394.889 286.491 381.574C296.062 368.259 301.684 355.196 315.951 348.576C330.219 341.957 349.878 344.827 365.709 346.356C381.54 347.886 402.673 357.931 416.591 367.274C430.508 376.618 442.432 389.367 451.379 404.472C455.038 410.649 458.157 417.149 460.703 423.874C460.749 423.921 466.27 429.574 470.909 430.821C476.943 432.443 482.021 432.179 486.658 428.002C488.953 425.934 489.269 423.953 490.941 421.358C489.842 418.138 489.429 411.11 489.426 411.048L489.945 394.497C489.945 394.497 491.218 374.735 499.701 360.248C508.185 345.761 524.631 325.108 534.508 317.103C544.384 309.097 562.092 292.899 577.874 292.624C593.656 292.349 608.108 301.927 621.964 312.682C635.819 323.436 649.843 336.453 661.585 353.124C673.327 369.795 681.343 387.276 686.679 398.269C692.015 409.26 701.156 407.188 706.109 403.468C707.42 402.483 708.783 401.567 710.191 400.723C712.698 399.221 714.417 396.499 713.963 393.618C713.933 393.431 713.903 393.257 713.873 393.098C709.661 370.828 693.911 354.529 681.154 336.417C668.398 318.306 651.248 300.697 636.883 289.578C622.518 278.46 595.214 265.485 575.034 265.837ZM887.008 427.51C886.552 426.578 885.154 426.87 885.11 427.906L883.919 456.229C883.904 456.584 883.701 456.905 883.386 457.071L859.378 469.716C858.489 470.185 858.77 471.525 859.772 471.598L886.835 473.553C887.19 473.578 887.506 473.791 887.662 474.111L900.111 499.578C900.567 500.51 901.965 500.217 902.009 499.181L903.2 470.859C903.215 470.504 903.418 470.183 903.732 470.017L927.74 457.372C928.63 456.904 928.349 455.563 927.347 455.49L900.283 453.535C899.928 453.509 899.613 453.296 899.457 452.977L887.008 427.51ZM817.553 426.671C815.512 423.066 810.936 421.798 807.331 423.838L763.402 448.701C759.798 450.742 758.529 455.318 760.569 458.923C762.61 462.527 767.186 463.796 770.791 461.756L814.721 436.892C818.325 434.851 819.592 430.275 817.553 426.671ZM348.312 414.328C341.44 411.552 333.72 415.606 332.104 422.839L326.836 446.431C324.623 456.341 334.953 464.35 343.999 459.736L372.139 445.386C381.305 440.711 380.722 427.424 371.183 423.569L348.312 414.328ZM157.043 362.854C156.587 361.923 155.189 362.216 155.146 363.252L153.749 396.454C153.734 396.81 153.531 397.131 153.216 397.297L125.104 412.103C124.215 412.571 124.495 413.912 125.498 413.984L157.188 416.274C157.543 416.3 157.857 416.513 158.014 416.833L172.608 446.688C173.064 447.62 174.462 447.327 174.506 446.291L175.902 413.089C175.917 412.733 176.121 412.412 176.436 412.246L204.547 397.44C205.437 396.972 205.156 395.63 204.153 395.558L172.464 393.269C172.109 393.243 171.794 393.03 171.638 392.71L157.043 362.854ZM777.445 381.82C774.419 378.992 769.673 379.153 766.845 382.18L730.521 421.049C727.693 424.075 727.854 428.821 730.88 431.649C733.906 434.477 738.652 434.317 741.48 431.291L777.804 392.421C780.632 389.395 780.471 384.648 777.445 381.82ZM596.17 350.857C590.866 345.907 582.416 346.76 578.207 352.67L563.158 373.804C557.011 382.437 564.256 394.219 574.734 392.628L607.153 387.706C617.071 386.2 620.873 373.914 613.54 367.069L596.17 350.857ZM539.148 131.187C538.693 130.255 537.295 130.547 537.251 131.583L535.747 167.322C535.732 167.678 535.529 167.999 535.214 168.165L504.97 184.094C504.08 184.562 504.361 185.904 505.363 185.977L539.457 188.439C539.812 188.465 540.128 188.678 540.284 188.998L555.993 221.135C556.449 222.066 557.847 221.774 557.891 220.737L559.395 184.998C559.41 184.642 559.613 184.321 559.928 184.155L590.172 168.227C591.061 167.758 590.78 166.416 589.777 166.344L555.684 163.881C555.329 163.855 555.014 163.642 554.857 163.322L539.148 131.187Z" fill="white"/>
</g>
<defs>
<filter id="filter0_d_101_3" x="34" y="34" width="956" height="956" filterUnits="userSpaceOnUse" color-interpolation-filters="sRGB">
<feFlood flood-opacity="0" result="BackgroundImageFix"/>
<feColorMatrix in="SourceAlpha" type="matrix" values="0 0 0 0 0 0 0 0 0 0 0 0 0 0 0 0 0 0 127 0" result="hardAlpha"/>
<feOffset/>
<feGaussianBlur stdDeviation="15"/>
<feComposite in2="hardAlpha" operator="out"/>
<feColorMatrix type="matrix" values="0 0 0 0 0.475575 0 0 0 0 0.253087 0 0 0 0 0.984826 0 0 0 1 0"/>
<feBlend mode="normal" in2="BackgroundImageFix" result="effect1_dropShadow_101_3"/>
<feBlend mode="normal" in="SourceGraphic" in2="effect1_dropShadow_101_3" result="shape"/>
</filter>
<radialGradient id="paint0_radial_101_3" cx="0" cy="0" r="1" gradientUnits="userSpaceOnUse" gradientTransform="translate(512 512) rotate(90) scale(512)">
<stop offset="0.254808" stop-color="#905FFF"/>
<stop offset="0.495192" stop-color="#9669FF"/>
<stop offset="0.668269" stop-color="#AC8AFA"/>
<stop offset="0.798077" stop-color="#AF8FFA"/>
<stop offset="1" stop-color="#BA9DFF"/>
</radialGradient>
</defs>
</svg>
