<svg width="1024" height="1024" viewBox="0 0 1024 1024" fill="none" xmlns="http://www.w3.org/2000/svg">
<rect x="0.5" y="0.5" width="1023" height="1023" rx="219.5" fill="url(#paint0_radial_101_3)" stroke="#C6C6C8"/>
<g>
<path d="M511.5 147C712.808 147 876 310.192 876 511.5C876 562.701 865.442 611.436 846.387 655.647C841.757 643.911 836.528 632.411 830.631 621.201C802.966 564.042 781.323 522.017 751.117 482.877C745.803 478.687 736.266 477.483 730.333 483.022C725.283 487.738 724.237 495.289 727.164 501.187C727.971 502.813 729.08 504.315 730.491 505.596C759.349 544.302 784.091 590.152 803.277 640.979C810.692 660.62 817.19 680.78 822.749 701.292C758.722 806.068 643.279 876 511.5 876C416.408 876 329.821 839.586 264.922 779.941C264.988 774.769 265.128 769.54 265.347 764.253L265.471 761.244C268.332 691.962 270.072 649.812 281.788 602.355C283.399 595.831 280.945 592.351 278.415 591.481C266.251 587.299 255.964 589.891 253.12 602.79C244.916 639.995 238.383 685.741 234.16 748.031C179.813 684.369 147 601.767 147 511.5C147 310.192 310.192 147 511.5 147ZM539.98 562.191C539.515 558.919 536.47 556.64 533.181 557.1C530.972 557.409 529.213 558.875 528.438 560.796C528.26 561.235 528.079 561.673 527.865 562.096C527.857 562.112 527.849 562.129 527.841 562.145L527.689 562.459L527.592 562.649C527.568 562.688 527.554 562.707 527.55 562.712C527.544 562.719 527.526 562.743 527.461 562.793C527.381 562.855 527.224 562.961 526.921 563.126C526.604 563.298 526.214 563.488 525.648 563.752C524.461 564.307 524.039 564.392 522.725 564.337C522.708 564.335 522.632 564.327 522.492 564.294C522.316 564.253 522.085 564.183 521.802 564.078C521.225 563.864 520.581 563.554 519.938 563.2C519.686 563.061 519.48 562.853 519.309 562.622C518.296 561.259 516.715 560.332 514.889 560.211C512.479 560.052 510.307 561.338 509.222 563.327C508.526 564.358 508.196 565.535 508.205 566.7C508.209 567.202 508.218 567.72 508.004 568.173C507.79 568.624 507.402 569.206 506.486 570.062C505.51 570.976 505.117 571.198 503.81 571.562C503.197 571.733 502.767 571.847 502.404 571.925C502.057 571.999 501.859 572.022 501.749 572.027C501.657 572.032 501.619 572.025 501.601 572.021C501.578 572.017 501.485 571.998 501.297 571.912C500.965 571.76 500.67 571.538 500.408 571.284C498.444 569.378 495.357 569.009 492.965 570.563C490.187 572.37 489.399 576.087 491.205 578.865C491.751 579.705 492.701 581.116 494.478 582.056C495.097 582.383 495.755 582.605 495.821 582.629C495.999 582.693 496.121 582.741 496.295 582.82C500.762 584.869 504.431 583.847 507.034 583.121C508.759 582.64 510.688 583.599 511.754 585.038C512.328 585.813 513.045 586.52 513.912 587.124C518.909 590.606 525.851 588.317 527.796 582.545C528.174 581.422 528.326 580.305 528.283 579.232C528.211 577.389 529.101 575.366 530.771 574.585C532.889 573.595 535.788 572.237 537.834 568.935C538.102 568.502 538.418 568.101 538.737 567.705C538.805 567.622 538.87 567.534 538.936 567.443C539.783 566.264 540.003 565.088 540.071 564.436C540.136 563.816 540.099 563.29 540.078 563.034C540.053 562.736 540.016 562.441 539.98 562.191ZM463.333 574.107C462.051 569.608 454.172 567.908 445.734 570.311C437.296 572.714 431.496 578.31 432.777 582.811C434.06 587.31 441.938 589.01 450.376 586.607C458.814 584.204 464.614 578.608 463.333 574.107ZM289.5 561.22C289.09 557.376 285.64 554.593 281.796 555.003L240.959 559.36C237.115 559.771 234.331 563.219 234.741 567.063C235.152 570.907 238.6 573.691 242.444 573.281L283.281 568.923C287.125 568.513 289.91 565.064 289.5 561.22ZM484.538 532.935C480.527 518.851 469.401 509.677 459.688 512.442C449.976 515.209 445.353 528.868 449.364 542.952C453.375 557.036 464.5 566.21 474.213 563.444C483.925 560.678 488.549 547.018 484.538 532.935ZM602.016 536.037C600.734 531.537 592.855 529.837 584.417 532.24C575.979 534.643 570.176 540.24 571.458 544.74C572.74 549.24 580.62 550.94 589.058 548.537C597.495 546.134 603.297 540.537 602.016 536.037ZM549.911 504.155C547.889 502.275 544.725 502.391 542.845 504.413L523.717 524.983L519.549 529.466C517.092 532.107 518.156 536.402 521.562 537.592L527.34 539.609L555.009 549.271C557.616 550.181 560.468 548.805 561.378 546.198L562.695 542.422L564.015 538.646C564.925 536.039 563.549 533.187 560.942 532.276L553.499 529.678C550.094 528.488 549.03 524.193 551.486 521.552L556.026 516.67C557.907 514.648 557.792 511.484 555.771 509.604L549.911 504.155ZM248.284 512.638C244.494 511.878 240.804 514.334 240.044 518.125C239.284 521.915 241.741 525.604 245.531 526.364L287.971 534.875C291.761 535.635 295.45 533.178 296.21 529.388C296.97 525.597 294.513 521.908 290.723 521.147L248.284 512.638ZM562.785 311.218C546.367 311.504 535.169 321.067 521.612 331.646C508.055 342.226 494.83 356.31 486.004 371.381C475.34 389.59 469.869 393.58 458.707 385.313C457.316 384.283 444.64 375.148 431.143 367.896C417.645 360.645 404.012 355.052 387.543 353.461C371.074 351.87 359.046 351.769 344.203 358.655C329.36 365.542 324.237 376.142 314.28 389.994C304.324 403.846 300.353 421.045 297.47 438.82L297.371 439.432C294.502 457.113 290.873 479.48 295.642 497.07C295.753 497.483 295.867 497.895 295.982 498.306C297.352 503.167 302.374 505.793 307.435 505.952C319.582 506.334 323.013 505.195 318.275 494.031C317.906 493.161 317.58 492.229 317.309 491.228C313.536 477.311 313.042 453.282 315.297 439.38C317.552 425.478 320.236 416.216 328.022 405.383C335.809 394.549 340.383 383.921 351.991 378.535C363.6 373.149 379.595 375.485 392.476 376.729C405.356 377.974 422.55 386.146 433.874 393.748C445.198 401.35 454.899 411.724 462.179 424.013C465.156 429.039 467.693 434.327 469.765 439.799C469.815 439.85 474.299 444.438 478.068 445.451C482.977 446.77 487.109 446.556 490.882 443.157C492.749 441.475 493.006 439.863 494.367 437.752C493.471 435.127 493.135 429.391 493.134 429.363L493.557 415.897C493.557 415.897 494.591 399.818 501.493 388.031C508.396 376.245 521.777 359.441 529.812 352.928C537.848 346.415 552.256 333.236 565.097 333.012C577.937 332.788 589.696 340.58 600.969 349.33C612.242 358.08 623.651 368.671 633.205 382.235C642.759 395.799 649.281 410.022 653.622 418.966C657.963 427.909 665.401 426.222 669.431 423.195C670.497 422.394 671.606 421.649 672.752 420.963C674.791 419.741 676.19 417.527 675.82 415.183C675.796 415.03 675.773 414.888 675.748 414.759C672.321 396.64 659.506 383.379 649.127 368.643C638.748 353.907 624.794 339.579 613.106 330.533C601.419 321.487 579.204 310.932 562.785 311.218ZM816.936 443.417C816.48 442.485 815.082 442.778 815.038 443.814L814.104 466.017C814.088 466.372 813.885 466.693 813.57 466.859L794.71 476.793C793.82 477.262 794.101 478.602 795.104 478.675L816.365 480.211C816.72 480.237 817.035 480.45 817.191 480.77L826.95 500.733C827.406 501.665 828.804 501.372 828.848 500.336L829.782 478.134C829.797 477.778 830 477.457 830.315 477.291L849.176 467.357C850.065 466.889 849.785 465.548 848.782 465.476L827.521 463.939C827.165 463.914 826.851 463.701 826.694 463.381L816.936 443.417ZM761.319 441.386C759.279 437.781 754.702 436.513 751.098 438.553L715.356 458.782C711.752 460.823 710.483 465.399 712.523 469.004C714.564 472.608 719.141 473.877 722.745 471.837L758.487 451.606C762.091 449.566 763.359 444.99 761.319 441.386ZM380.767 433.021C373.895 430.244 366.175 434.298 364.56 441.531L361.884 453.512C359.671 463.422 370.001 471.431 379.047 466.817L393.337 459.529C402.503 454.855 401.92 441.569 392.381 437.714L380.767 433.021ZM223.024 390.813C222.569 389.882 221.171 390.174 221.127 391.21L220.025 417.383C220.01 417.739 219.807 418.06 219.492 418.226L197.292 429.918C196.403 430.387 196.684 431.727 197.687 431.8L222.712 433.608C223.067 433.634 223.382 433.847 223.538 434.167L235.043 457.701C235.499 458.633 236.897 458.34 236.94 457.304L238.041 431.131C238.056 430.775 238.259 430.454 238.574 430.288L260.774 418.596C261.664 418.127 261.384 416.786 260.381 416.714L235.354 414.906C234.999 414.88 234.685 414.667 234.528 414.348L223.024 390.813ZM728.425 404.562C725.398 401.734 720.652 401.895 717.824 404.921L688.271 436.546C685.443 439.572 685.604 444.318 688.63 447.146C691.656 449.974 696.402 449.813 699.23 446.787L728.784 415.162C731.612 412.136 731.451 407.39 728.425 404.562ZM581.849 382.134C576.544 377.183 568.094 378.035 563.886 383.945L556.186 394.76C550.038 403.393 557.284 415.175 567.763 413.584L584.351 411.065C594.267 409.559 598.07 397.273 590.737 390.429L581.849 382.134ZM533.911 202.324C533.456 201.392 532.057 201.685 532.014 202.722L530.825 230.958C530.81 231.314 530.607 231.635 530.292 231.801L506.356 244.407C505.467 244.876 505.748 246.217 506.751 246.289L533.732 248.238C534.088 248.264 534.403 248.477 534.56 248.797L546.971 274.187C547.426 275.118 548.824 274.826 548.868 273.79L550.056 245.553C550.071 245.197 550.274 244.876 550.589 244.71L574.524 232.104C575.414 231.636 575.134 230.294 574.131 230.222L547.148 228.272C546.793 228.247 546.479 228.034 546.322 227.714L533.911 202.324Z" fill="white"/>
</g>
<defs>
<radialGradient id="paint0_radial_101_3" cx="0" cy="0" r="1" gradientUnits="userSpaceOnUse" gradientTransform="translate(512 512) rotate(90) scale(512)">
<stop offset="0.254808" stop-color="#905FFF"/>
<stop offset="0.495192" stop-color="#9669FF"/>
<stop offset="0.668269" stop-color="#AC8AFA"/>
<stop offset="0.798077" stop-color="#AF8FFA"/>
<stop offset="1" stop-color="#BA9DFF"/>
</radialGradient>
</defs>
</svg>
